<svg id="Camada_1" data-name="Camada 1" xmlns="http://www.w3.org/2000/svg" xmlns:xlink="http://www.w3.org/1999/xlink" viewBox="0 0 1000 1000"><defs><style>.cls-1{fill:url(#Gradiente_sem_nome_23);}.cls-2{fill:#fff;}</style><linearGradient id="Gradiente_sem_nome_23" x1="66.915" y1="249.95826" x2="933.085" y2="750.04174" gradientUnits="userSpaceOnUse"><stop offset="0" stop-color="#00d2e9"/><stop offset="0.99438" stop-color="#000cbf"/></linearGradient></defs><title>camera</title><circle class="cls-1" cx="500" cy="500" r="500"/><path class="cls-2" d="M813.608,362.407V715.7392a58.9039,58.9039,0,0,1-58.8887,58.88871H244.3505a58.9039,58.9039,0,0,1-58.8887-58.88871V362.407a58.9039,58.9039,0,0,1,58.8887-58.88871H352.31312l15.09024-40.3633A58.80645,58.80645,0,0,1,422.48884,225H576.45827a58.80645,58.80645,0,0,1,55.08547,38.155l15.2129,40.3633H754.71927A58.9039,58.9039,0,0,1,813.608,362.407ZM646.75664,539.07309c0-81.21733-66.0044-147.22176-147.22176-147.22176S352.31312,457.85576,352.31312,539.07309s66.00443,147.22176,147.22176,147.22176S646.75664,620.29044,646.75664,539.07309Zm-39.25913,0A107.96263,107.96263,0,1,1,499.53488,431.11047,108.12176,108.12176,0,0,1,607.49751,539.07309Z"/></svg>