<svg id="Camada_1" data-name="Camada 1" xmlns="http://www.w3.org/2000/svg" viewBox="0 0 783.53755 726.30001"><defs><style>.cls-1{fill:#fff;}</style></defs><title>arrow2</title><path class="cls-1" d="M769,327.8,455.7,14.6a50.21733,50.21733,0,0,0-70.7,0h0a50.21734,50.21734,0,0,0,0,70.7L612.8,313.1H50a50.147,50.147,0,0,0-50,50H0a50.147,50.147,0,0,0,50,50H612.6l-228,228a50.21733,50.21733,0,0,0,0,70.7h0a50.21726,50.21726,0,0,0,70.7,0L765,402.1a44.03693,44.03693,0,0,0,3.9-3.5h0A50.24708,50.24708,0,0,0,769,327.8Z" transform="translate(0 -0.05)"/></svg>