<svg id="svg3741" xmlns="http://www.w3.org/2000/svg" viewBox="0 0 785.71431 857.14288"><defs><style>.cls-1{fill:#fff;}</style></defs><title>trash</title><g id="g3743"><path id="path3745" class="cls-1" d="M395.88379,396.79174V718.22032a17.19288,17.19288,0,0,1-17.85714,17.85715H342.31236a17.19288,17.19288,0,0,1-17.85714-17.85715V396.79174a17.19288,17.19288,0,0,1,17.85714-17.85714h35.71429a17.19288,17.19288,0,0,1,17.85714,17.85714Zm142.85715,0V718.22032a17.19288,17.19288,0,0,1-17.85714,17.85715H485.16951a17.19288,17.19288,0,0,1-17.85714-17.85715V396.79174a17.19288,17.19288,0,0,1,17.85714-17.85714H520.8838a17.19288,17.19288,0,0,1,17.85714,17.85714Zm142.85715,0V718.22032a17.19288,17.19288,0,0,1-17.85715,17.85715H628.02666a17.1929,17.1929,0,0,1-17.85715-17.85715V396.79174a17.1929,17.1929,0,0,1,17.85715-17.85714h35.71428a17.19288,17.19288,0,0,1,17.85715,17.85714Zm71.42857,404.01787V271.79174h-500V800.80961a63.37212,63.37212,0,0,0,3.90625,22.60045q3.90624,10.32366,8.09151,15.067t5.85938,4.74331H735.16952q1.6741,0,5.85937-4.74331t8.09152-15.067A63.37234,63.37234,0,0,0,753.02666,800.80961Zm-375-600.44644h250L601.24094,135.073a15.74873,15.74873,0,0,0-9.4866-6.13839H414.857a15.74872,15.74872,0,0,0-9.48661,6.13839Zm517.85716,17.85714V253.9346a17.19288,17.19288,0,0,1-17.85714,17.85714H824.45524V800.80961q0,46.317-26.22768,80.07813t-63.058,33.76116H270.88379q-36.83035,0-63.058-32.64509t-26.22768-78.96205v-531.25H128.02664A17.19288,17.19288,0,0,1,110.1695,253.9346V218.22031a17.19288,17.19288,0,0,1,17.85714-17.85714h172.433l39.0625-93.192q8.37054-20.64729,30.13393-35.15625T413.74094,57.506H592.31237q22.32146,0,44.08482,14.50893t30.13393,35.15625l39.0625,93.192h172.433a17.19288,17.19288,0,0,1,17.85714,17.85714Z" transform="translate(-110.1695 -57.50602)"/></g></svg>