<svg id="Camada_1" data-name="Camada 1" xmlns="http://www.w3.org/2000/svg" viewBox="0 0 814.05384 177.07617"><defs><style>.cls-1{fill:#00eaea;}.cls-2{fill:#00d2ff;}.cls-3{fill:#009fff;}.cls-4{fill:#0078ff;}</style></defs><title>full_logo_dark</title><path class="cls-1" d="M96.59463,35.50377A52.95663,52.95663,0,0,1,134.15816,51.0631L159.2,26.02127A88.53847,88.53847,0,0,0,28.9771,31.27555L56.11865,54.22508A53.00244,53.00244,0,0,1,96.59463,35.50377Z" transform="translate(-7.96801)"/><path class="cls-2" d="M43.47178,88.62662A52.90837,52.90837,0,0,1,56.11865,54.22508L28.9771,31.27555a88.572,88.572,0,0,0-7.8456,103.73378L51.30127,116.395A52.8713,52.8713,0,0,1,43.47178,88.62662Z" transform="translate(-7.96801)"/><path class="cls-3" d="M96.59463,141.74948A53.08827,53.08827,0,0,1,51.30127,116.395L21.1315,135.00933a88.48093,88.48093,0,0,0,75.3746,42.06684q3.02679,0,6.00375-.20179L100.152,141.62816C98.97592,141.70594,97.79044,141.74948,96.59463,141.74948Z" transform="translate(-7.96801)"/><path class="cls-4" d="M100.152,141.62816l2.35782,35.24622A88.251,88.251,0,0,0,159.112,151.144l-24.95382-24.95382A52.94936,52.94936,0,0,1,100.152,141.62816Z" transform="translate(-7.96801)"/><path d="M319.82458,109.2272a30.52668,30.52668,0,0,1-2.69531,11.83594,42.682,42.682,0,0,1-8.47656,12.5,43.22857,43.22857,0,0,1-14.76563,9.96094,53.10371,53.10371,0,0,1-20.9375,3.82812,73.23156,73.23156,0,0,1-16.48437-1.71875,46.25148,46.25148,0,0,1-13.47656-5.35156,45.42829,45.42829,0,0,1-11.13282-9.57031,56.82193,56.82193,0,0,1-7.73437-12.07031,62.84709,62.84709,0,0,1-4.80469-14.25782,77.65648,77.65648,0,0,1-1.60156-16.09375,71.37694,71.37694,0,0,1,4.02344-24.76562,52.82823,52.82823,0,0,1,11.52343-18.71094A50.28,50.28,0,0,1,250.84021,32.9772a56.931,56.931,0,0,1,21.48437-4.0625,53.69071,53.69071,0,0,1,24.76563,5.54688q10.85815,5.5481,16.64062,13.71094,5.78028,8.165,5.78125,15.42968a10.0576,10.0576,0,0,1-2.8125,7.03125,8.91659,8.91659,0,0,1-6.79687,3.04688q-4.45312,0-6.67969-2.10938a29.196,29.196,0,0,1-4.96094-7.26562Q293.72986,55.79093,287.598,51.571q-6.134-4.21875-15.11719-4.21875-14.29687,0-22.77343,10.85938-8.47779,10.86034-8.47657,30.85937,0,13.35938,3.75,22.22657,3.75,8.86816,10.625,13.24218a29.314,29.314,0,0,0,16.09375,4.375q9.999,0,16.91407-4.96093,6.91406-4.96,10.42968-14.57032a24.7196,24.7196,0,0,1,3.67188-7.38281q2.18628-2.85058,7.03125-2.85156a9.83908,9.83908,0,0,1,7.10937,2.89062A9.631,9.631,0,0,1,319.82458,109.2272Z" transform="translate(-7.96801)"/><path d="M391.50623,135.321a65.979,65.979,0,0,1-14.96143,9.02344,41.85124,41.85124,0,0,1-16.21094,3.00781A30.72806,30.72806,0,0,1,345.9198,144.11a23.70019,23.70019,0,0,1-9.57031-8.78907,22.79433,22.79433,0,0,1-3.35938-12.03125,21.5386,21.5386,0,0,1,5.54688-14.92187q5.54589-6.16992,15.23437-8.28125,2.03028-.46875,10.07813-2.10938,8.04565-1.64062,13.78906-3.00781,5.74218-1.36524,12.46143-3.32031-.39258-8.4375-3.39844-12.38281-3.00879-3.9441-12.46143-3.94532-8.12622,0-12.22656,2.26563a19.86267,19.86267,0,0,0-7.03125,6.79687A72.19716,72.19716,0,0,1,350.84167,90.36q-1.21215,1.44652-5.19531,1.44531a9.08242,9.08242,0,0,1-6.21094-2.30469,7.50156,7.50156,0,0,1-2.61718-5.89844,18.04279,18.04279,0,0,1,3.98437-10.9375q3.98438-5.31151,12.42188-8.75,8.4375-3.43651,21.01562-3.4375,14.0625,0,22.10987,3.32032a20.56566,20.56566,0,0,1,11.36718,10.50781q3.31934,7.18872,3.32032,19.0625,0,7.5-.03907,12.73437-.041,5.23536-.11718,11.64063a42.87309,42.87309,0,0,0,1.99218,12.53906q1.9922,6.52441,1.99219,8.39844a7.86164,7.86164,0,0,1-3.08594,5.97656,10.34518,10.34518,0,0,1-6.99218,2.69531q-3.28125,0-6.48438-3.08593A45.67549,45.67549,0,0,1,391.50623,135.321ZM390.1,104.46158a107.20654,107.20654,0,0,1-13.63331,3.63281q-8.94653,1.916-12.38281,2.8125a16.861,16.861,0,0,0-6.5625,3.51563,9.00625,9.00625,0,0,0-3.125,7.30468,10.81329,10.81329,0,0,0,3.67188,8.24219,13.58268,13.58268,0,0,0,9.60937,3.39844,24.99747,24.99747,0,0,0,11.67969-2.77344,18.50623,18.50623,0,0,0,7.852-7.14844q2.88867-4.84276,2.89063-15.9375Z" transform="translate(-7.96801)"/><path d="M431.07751,134.38345v-92.5q0-6.405,2.85157-9.6875a9.67259,9.67259,0,0,1,7.69531-3.28125,10.09648,10.09648,0,0,1,7.8125,3.24219q2.96778,3.24317,2.96875,9.72656v92.5q0,6.48633-3.00781,9.72657a10.12893,10.12893,0,0,1-7.77344,3.24218,9.63529,9.63529,0,0,1-7.61719-3.35937Q431.07752,140.63541,431.07751,134.38345Z" transform="translate(-7.96801)"/><path d="M549.32166,120.946a18.40236,18.40236,0,0,1-2.38282,8.51563,29.28828,29.28828,0,0,1-7.26562,8.63281,37.5543,37.5543,0,0,1-12.30469,6.60156,52.23263,52.23263,0,0,1-16.71875,2.5q-19.76659,0-30.85937-11.52343-11.09474-11.52246-11.09375-30.89844A50.87107,50.87107,0,0,1,473.77478,81.571,36.45188,36.45188,0,0,1,488.46228,65.985q9.60938-5.50782,22.96875-5.50782a45.719,45.719,0,0,1,15.19531,2.42188,39.72191,39.72191,0,0,1,11.71875,6.25,29.9821,29.9821,0,0,1,7.34375,8.16406,16.18444,16.18444,0,0,1,2.53907,8.08594,8.52553,8.52553,0,0,1-2.85157,6.48437,9.77822,9.77822,0,0,1-6.91406,2.65625,6.96845,6.96845,0,0,1-4.41406-1.36718,21.60592,21.60592,0,0,1-3.94531-4.41407,32.35088,32.35088,0,0,0-8.16407-8.90625,20.06022,20.06022,0,0,0-26.05468,4.41407q-5.78321,7.38281-5.78125,20.19531a38.97512,38.97512,0,0,0,1.48437,11.05469,25.09347,25.09347,0,0,0,4.29688,8.59375,18.36723,18.36723,0,0,0,6.79687,5.39062,20.64321,20.64321,0,0,0,8.75,1.83594,19.7014,19.7014,0,0,0,10.97656-2.96875,25.96153,25.96153,0,0,0,8.08594-9.0625,20.83518,20.83518,0,0,1,4.21875-5.625,8.012,8.012,0,0,1,5.54688-2.03125,8.22892,8.22892,0,0,1,6.48437,2.96875A9.51423,9.51423,0,0,1,549.32166,120.946Z" transform="translate(-7.96801)"/><path d="M616.70544,145.39908h-35q-7.5791,0-10.82031-3.39844-3.24316-3.39843-3.24219-10.82031V45.08658q0-7.5769,3.32032-10.89844,3.31934-3.31933,10.74218-3.32031h37.10938a86.69435,86.69435,0,0,1,14.21875,1.01562,30.33461,30.33461,0,0,1,10.78125,3.90625,28.34867,28.34867,0,0,1,7.1875,6.13282,27.10283,27.10283,0,0,1,4.76562,8.20312,27.45785,27.45785,0,0,1,1.64063,9.49219q0,17.18847-17.1875,25.15625,22.57617,7.18872,22.57812,27.96875a31.42952,31.42952,0,0,1-4.92187,17.30469,29.53157,29.53157,0,0,1-13.28125,11.36718,47.14833,47.14833,0,0,1-12.03125,3.08594A122.49325,122.49325,0,0,1,616.70544,145.39908ZM590.84607,48.2897V77.89908h21.25q8.67188,0,13.39844-1.64063a12.79316,12.79316,0,0,0,7.22656-6.25,14.0938,14.0938,0,0,0,1.95312-7.34375q0-8.67187-6.17187-11.52343-6.17286-2.85059-18.82813-2.85157Zm24.14062,46.25H590.84607v33.4375h24.92187q23.51369,0,23.51563-16.95312,0-8.67187-6.09375-12.57813Q627.09607,94.54069,614.98669,94.5397Z" transform="translate(-7.96801)"/><path d="M700.96521,116.571v17.8125q0,6.48633-3.04688,9.72657a10.15823,10.15823,0,0,1-7.73437,3.24218,9.76237,9.76237,0,0,1-7.57813-3.28125q-2.97069-3.28125-2.96875-9.6875v-59.375q0-14.37378,10.39063-14.375,5.31153,0,7.65625,3.35938,2.34375,3.36034,2.57812,9.92187a37.287,37.287,0,0,1,7.85157-9.92187q4.02246-3.35815,10.74218-3.35938a27.50765,27.50765,0,0,1,13.04688,3.35938q6.32813,3.36034,6.32812,8.90625a8.46881,8.46881,0,0,1-2.69531,6.44531,8.36161,8.36161,0,0,1-5.82031,2.53906,26.7496,26.7496,0,0,1-5.66406-1.44531,26.3671,26.3671,0,0,0-7.92969-1.44531,11.59738,11.59738,0,0,0-7.65625,2.46094,15.78315,15.78315,0,0,0-4.60938,7.30468,50.9604,50.9604,0,0,0-2.26562,11.52344Q700.96326,106.96159,700.96521,116.571Z" transform="translate(-7.96801)"/><path d="M822.02185,103.99283A50.42077,50.42077,0,0,1,819.0531,121.571a38.82277,38.82277,0,0,1-8.59375,13.82813,37.92869,37.92869,0,0,1-13.4375,8.86719,47.52685,47.52685,0,0,1-17.57812,3.08593,46.17561,46.17561,0,0,1-17.42188-3.125,38.4486,38.4486,0,0,1-21.99219-22.69531A50.26813,50.26813,0,0,1,737.1,103.99283a50.86532,50.86532,0,0,1,2.96875-17.73438,38.57631,38.57631,0,0,1,8.51562-13.75,37.54361,37.54361,0,0,1,13.4375-8.78906,50.86132,50.86132,0,0,1,35,.03906A37.805,37.805,0,0,1,819.09216,86.4147,50.60078,50.60078,0,0,1,822.02185,103.99283Zm-21.40625,0q0-13.04591-5.74219-20.3125a18.64983,18.64983,0,0,0-15.42968-7.26563,19.11242,19.11242,0,0,0-11.01563,3.24219,20.5423,20.5423,0,0,0-7.34375,9.57031,38.95262,38.95262,0,0,0-2.57812,14.76563,38.626,38.626,0,0,0,2.53906,14.60937,20.92136,20.92136,0,0,0,7.26562,9.57032,18.85988,18.85988,0,0,0,11.13282,3.32031,18.60853,18.60853,0,0,0,15.42968-7.30469Q800.61561,116.88443,800.6156,103.99283Z" transform="translate(-7.96801)"/></svg>