<svg id="Camada_1" data-name="Camada 1" xmlns="http://www.w3.org/2000/svg" viewBox="0 0 822.02186 176.2669"><defs><style>.cls-1{fill:#0074ff;}.cls-2{fill:#00bdff;}.cls-3{fill:#0092ff;}</style></defs><title>full_logo_dark</title><path d="M398.79932,456.28174l22.42187,7.10937q-5.15625,18.75-17.14844,27.85108-11.9934,9.10254-30.42968,9.10156-22.81349,0-37.5-15.58594-14.68872-15.58519-14.6875-42.6167,0-28.59375,14.76562-44.41406t38.82813-15.82031q21.01464,0,34.14062,12.42187,7.81128,7.34473,11.71875,21.09375l-22.89062,5.46875a23.66,23.66,0,0,0-24.14063-19.21875q-12.73534,0-20.66406,9.14063-7.93066,9.14063-7.92969,29.60937,0,21.72,7.8125,30.9375a25.3652,25.3652,0,0,0,20.3125,9.21875,23.16667,23.16667,0,0,0,15.85938-5.85937Q395.90748,468.85987,398.79932,456.28174Z" transform="translate(-99.6676 -340.97119)"/><path d="M457.31494,440.73486l-19.92187-3.59375q3.35815-12.03,11.5625-17.8125,8.20313-5.78027,24.37451-5.78125,14.68651,0,21.875,3.47657,7.18651,3.47754,10.11719,8.82812,2.92968,5.35254,2.92968,19.64844l-.23437,25.625q0,10.93872,1.05469,16.13232a47.01979,47.01979,0,0,0,3.94531,11.13282H491.29883q-.86133-2.18556-2.10938-6.48438-.54784-1.95117-.78125-2.57812a39.57044,39.57044,0,0,1-12.03125,8.20312,34.47031,34.47031,0,0,1-13.67138,2.73438q-12.81372,0-20.19532-6.95313a23.10963,23.10963,0,0,1-7.38281-17.57764,23.58968,23.58968,0,0,1,3.35938-12.53906,21.94158,21.94158,0,0,1,9.41406-8.4375q6.05346-2.92968,17.46094-5.11719,15.3889-2.88941,21.32763-5.39062V442.063q0-6.32812-3.125-9.02344-3.126-2.69531-11.79638-2.69531-5.85937,0-9.14063,2.30469Q459.34619,434.9546,457.31494,440.73486Zm29.37451,17.8125a136.98038,136.98038,0,0,1-13.35937,3.35938q-9.13989,1.95409-11.95264,3.82812a9.15449,9.15449,0,0,0-4.29687,7.73438,10.76087,10.76087,0,0,0,3.4375,7.96826,11.99524,11.99524,0,0,0,8.75,3.35938,19.00852,19.00852,0,0,0,11.32763-3.90577,13.74959,13.74959,0,0,0,5.23438-7.26562q.85839-2.8125.85937-10.70313Z" transform="translate(-99.6676 -340.97119)"/><path d="M529.89258,498.39063V383.85986H551.8457V498.39063Z" transform="translate(-99.6676 -340.97119)"/><path d="M646.68945,439.95361l-21.64062,3.90625q-1.0957-6.48339-4.96094-9.76562a14.98386,14.98386,0,0,0-10.03906-3.28125q-8.20312,0-13.08594,5.66406-4.88379,5.66529-4.88281,18.94531,0,14.76563,4.96094,20.85938a16.28621,16.28621,0,0,0,13.32031,6.09326,14.79272,14.79272,0,0,0,10.23437-3.5542q3.98438-3.55371,5.625-12.22656l21.5625,3.67187q-3.36034,14.84473-12.89062,22.42139-9.5332,7.57909-25.54688,7.57813-18.20508,0-29.02343-11.48438Q569.5,477.29688,569.502,456.98486q0-20.54589,10.85938-31.99218,10.85742-11.4441,29.375-11.44532,15.15527,0,24.10156,6.52344Q642.78223,426.59522,646.68945,439.95361Z" transform="translate(-99.6676 -340.97119)"/><path d="M663.56445,383.85986H709.3457q13.59375,0,20.27344,1.13282a29.80886,29.80886,0,0,1,11.95313,4.72656,29.40217,29.40217,0,0,1,8.78906,9.57031A25.93042,25.93042,0,0,1,753.877,412.688a27.15023,27.15023,0,0,1-16.09375,24.84375q10.46778,3.04688,16.09375,10.39062a27.58336,27.58336,0,0,1,5.625,17.26563,34.03862,34.03862,0,0,1-3.63281,15.19531,30.612,30.612,0,0,1-9.92187,11.79639,32.75779,32.75779,0,0,1-15.50782,5.42969q-5.7832.62694-27.89062.78125H663.56445Zm23.125,19.0625v26.48438H701.8457q13.51466,0,16.79688-.39063a15.28925,15.28925,0,0,0,9.33594-4.10156,12.09308,12.09308,0,0,0,3.39843-8.94531,12.56882,12.56882,0,0,0-2.92968-8.63281q-2.92969-3.31934-8.71094-4.02344-3.43945-.38966-19.76563-.39063Zm0,45.54688v30.625H708.0957q12.498,0,15.85938-.70313a14.33281,14.33281,0,0,0,8.39844-4.57031q3.24023-3.63281,3.24218-9.72656a14.94762,14.94762,0,0,0-2.5-8.75,14.14134,14.14134,0,0,0-7.22656-5.23438q-4.72851-1.64062-20.50781-1.64062Z" transform="translate(-99.6676 -340.97119)"/><path d="M799.89258,498.39063H777.93945V415.42236h20.39063v11.79688q5.23242-8.35841,9.41406-11.01563a17.31884,17.31884,0,0,1,9.49219-2.65625,27.87284,27.87284,0,0,1,14.45312,4.14063l-6.79687,19.14062q-5.54883-3.59253-10.3125-3.59375a12.1859,12.1859,0,0,0-7.8125,2.53907q-3.20508,2.54-5.03906,9.17968-1.83691,6.64161-1.83594,27.8125Z" transform="translate(-99.6676 -340.97119)"/><path d="M836.06445,455.73486a44.88557,44.88557,0,0,1,5.39063-21.17187,36.9967,36.9967,0,0,1,15.27344-15.625,45.325,45.325,0,0,1,22.07031-5.39063q18.82617,0,30.85937,12.22657,12.0293,12.22777,12.03125,30.89843,0,18.82911-12.14843,31.21045-12.14941,12.38379-30.58594,12.38282a48.174,48.174,0,0,1-21.75781-5.15625,35.36593,35.36593,0,0,1-15.74219-15.1167Q836.06446,470.03174,836.06445,455.73486Zm22.5,1.17188q0,12.345,5.85938,18.90625a19.15483,19.15483,0,0,0,28.86719,0q5.81835-6.5625,5.82031-19.0625,0-12.1875-5.82031-18.75a19.15389,19.15389,0,0,0-28.86719,0Q858.56446,444.563,858.56445,456.90674Z" transform="translate(-99.6676 -340.97119)"/><path class="cls-1" d="M168,517h47.42559a19.65149,19.65149,0,0,0,13.89569-5.75578l54.34855-54.34855a19.65146,19.65146,0,0,0,0-27.79136l0,0a19.65146,19.65146,0,0,0-27.79137,0L167.8723,517.1104l.1277.1277Z" transform="translate(-99.6676 -340.97119)"/><path class="cls-2" d="M177.84408,471.80256l-14.93936-14.93932a19.5701,19.5701,0,0,0-27.67632,0l0,0a19.57723,19.57723,0,0,1-23.723,3.05578l-.08055,1.04709L150.05265,499.594a19.5701,19.5701,0,0,0,27.67632,0l.11507-.11511A19.57014,19.57014,0,0,0,177.84408,471.80256Z" transform="translate(-99.6676 -340.97119)"/><rect class="cls-3" x="101.76364" y="423.31869" width="39.14028" height="39.29991" rx="14.6461" transform="translate(-377.35589 -125.43275) rotate(-45)"/><path class="cls-1" d="M229.84392,375.23719l-34.266-34.266-.05716.05714-.02014-.02014L114.90211,421.6067l-.00519.02055a9.18071,9.18071,0,0,1,12.87514.10333l14.7998,14.79979a9.185,9.185,0,0,0,12.98944,0l33.50179-33.50179a9.18485,9.18485,0,0,1,12.9894,0h0a9.18488,9.18488,0,0,0,12.98944,0l14.802-14.80195A9.18489,9.18489,0,0,0,229.84392,375.23719Z" transform="translate(-99.6676 -340.97119)"/></svg>