<svg id="Camada_1" data-name="Camada 1" xmlns="http://www.w3.org/2000/svg" viewBox="0 0 332.45081 308.81476"><defs><style>.cls-1{fill:#0074ff;}.cls-2{fill:#00bdff;}.cls-3{fill:#0092ff;}</style></defs><title>logo_certa</title><path class="cls-1" d="M252.1633,418.58286h83.08834a34.42884,34.42884,0,0,0,24.34485-10.084l95.21716-95.21716a34.42883,34.42883,0,0,0,0-48.68971l0-.00005a34.42882,34.42882,0,0,0-48.6897,0L251.93957,418.77627,252.1633,419Z" transform="translate(-132.44681 -110.18524)"/><path class="cls-2" d="M269.40985,339.39819l-26.17334-26.17328a34.2863,34.2863,0,0,0-48.48816,0l-.00006.00007a34.29879,34.29879,0,0,1-41.562,5.35363l-.14111,1.83448L220.72,388.088a34.28628,34.28628,0,0,0,48.48816,0l.2016-.20166A34.28634,34.28634,0,0,0,269.40985,339.39819Z" transform="translate(-132.44681 -110.18524)"/><rect class="cls-3" x="136.11901" y="254.4558" width="68.57269" height="68.85235" rx="25.65957" transform="translate(-286.80664 94.92111) rotate(-45)"/><path class="cls-1" d="M360.51215,170.21832l-60.03309-60.03308-.10015.1001-.03528-.03528L159.13727,251.45642l-.0091.036a16.08435,16.08435,0,0,1,22.55689.181l25.92883,25.92883a16.09178,16.09178,0,0,0,22.75714,0l58.69422-58.69421a16.0916,16.0916,0,0,1,22.75708,0h.00006a16.09167,16.09167,0,0,0,22.75714,0l25.93262-25.93262A16.09167,16.09167,0,0,0,360.51215,170.21832Z" transform="translate(-132.44681 -110.18524)"/></svg>