<svg id="Camada_1" data-name="Camada 1" xmlns="http://www.w3.org/2000/svg" viewBox="0 0 542.88699 542.44496"><defs><style>.cls-1{fill:#fff;}</style></defs><title>lupa</title><path class="cls-1" d="M746.47107,676.32184,597.84735,527.69818C659.8468,444.11786,652.96,325.52545,577.16907,249.73444c-83.377-83.377-218.55768-83.377-301.93463,0s-83.3769,218.55767,0,301.93457c75.944,75.944,194.86059,82.70153,278.46765,20.29809L702.26392,720.529a31.35109,31.35109,0,0,0,44.20709,0l.00006-.00006A31.35109,31.35109,0,0,0,746.47107,676.32184Zm-433.96539-162.677a159.72569,159.72569,0,1,1,227.6911-1.85114c-.43024.38495-.85382.78107-1.26685,1.19409l-.00006.00006c-.4704.4704-.91608.95618-1.3501,1.44886A159.71894,159.71894,0,0,1,312.50568,513.64484Z" transform="translate(-212.70177 -187.20172)"/></svg>