<svg id="Camada_1" data-name="Camada 1" xmlns="http://www.w3.org/2000/svg" viewBox="0 0 913 906"><defs><style>.cls-1{fill:#fff;}</style></defs><title>clock</title><path class="cls-1" d="M598.85022,66.60065l-.0238.12762a44.81036,44.81036,0,0,0-16.43787,88.09937l-.06366.34131C752.8576,186.78772,882,336.30927,882,516c0,202.68848-164.31152,367-367,367S148,718.68848,148,516A365.94043,365.94043,0,0,1,261.82544,250.319a38.53371,38.53371,0,0,0,16.30371,50.86249h.00006a38.53453,38.53453,0,0,0,52.011-15.72565l77.82965-145.29034a38.53458,38.53458,0,0,0-15.72565-52.011l-.00006-.00006A38.13772,38.13772,0,0,0,369.712,83.90015l-161.98139,5.155a38.53448,38.53448,0,0,0-37.18,39.62427v.00006a38.53452,38.53452,0,0,0,39.62427,37.18006l12.29724-.39136C122.54816,249.20764,59,374.9278,59,515.5,59,767.618,263.382,972,515.5,972S972,767.618,972,515.5C972,291.85022,811.16528,105.77325,598.85022,66.60065Z" transform="translate(-59 -66)"/><rect class="cls-1" x="513" y="518" width="258" height="61" rx="30.49997" transform="translate(87.07126 -200.92588) rotate(13.52415)"/><rect class="cls-1" x="378.46882" y="457.52308" width="203.90768" height="61" rx="30.49997" transform="translate(249.37597 -240.82864) rotate(30)"/></svg>