<svg id="Camada_1" data-name="Camada 1" xmlns="http://www.w3.org/2000/svg" viewBox="0 0 514.45196 514.4295"><title>x_dark</title><path d="M500.12448,429.1348,327.972,256.98215,499.65939,85.29471a50.147,50.147,0,0,0,0-70.71057l-.00012-.00006a50.14686,50.14686,0,0,0-70.71057,0L257.26126,186.27151,85.75983,14.77011a50.147,50.147,0,0,0-70.71064,0l-.00006.00006a50.14688,50.14688,0,0,0,0,70.71057L186.55057,256.98221,14.58408,428.9487a50.14686,50.14686,0,0,0,0,70.71057l.00006.00012a50.147,50.147,0,0,0,70.71057,0L257.26126,327.69284,429.41385,499.84543a50.14695,50.14695,0,0,0,70.71063,0l.00006-.00006C519.32291,480.33023,519.13242,448.83725,500.12448,429.1348Z"/></svg>