<svg id="Camada_1" data-name="Camada 1" xmlns="http://www.w3.org/2000/svg" viewBox="0 0 514.70856 514.4295"><defs><style>.cls-1{fill:#fff;}</style></defs><title>x</title><path class="cls-1" d="M685.53766,705.827,513.38513,533.67438,685.07257,361.98694a50.147,50.147,0,0,0,0-70.71057l-.00012-.00006a50.14686,50.14686,0,0,0-70.71057,0L442.67444,462.96375,271.173,291.46234a50.14695,50.14695,0,0,0-70.71063,0l-.00006.00006a50.14688,50.14688,0,0,0,0,70.71057L371.96375,533.67444,199.99725,705.64093a50.14688,50.14688,0,0,0,0,70.71057l.00006.00012a50.147,50.147,0,0,0,70.71058,0L442.67444,604.38507,614.827,776.53766a50.14695,50.14695,0,0,0,70.71063,0l.00006-.00006A50.14695,50.14695,0,0,0,685.53766,705.827Z" transform="translate(-185.41318 -276.69223)"/></svg>